<svg xmlns="http://www.w3.org/2000/svg" viewBox="0 0 64 64"><path fill="#f5f7ff" d="M32 7a25 25 0 0 0-8 48.7c1.3.2 1.7-.5 1.7-1.2v-4.4c-7 1.5-8.5-3-8.5-3-1.1-2.9-2.7-3.6-2.7-3.6-2.2-1.5.2-1.5.2-1.5 2.4.2 3.7 2.5 3.7 2.5 2.2 3.7 5.7 2.6 7.1 2 .2-1.6.8-2.7 1.5-3.3-5.6-.6-11.5-2.8-11.5-12.4 0-2.7 1-5 2.5-6.7-.2-.6-1.1-3.2.3-6.7 0 0 2.1-.7 6.9 2.5a24 24 0 0 1 12.6 0c4.8-3.2 6.9-2.5 6.9-2.5 1.4 3.5.5 6.1.3 6.7 1.6 1.7 2.5 4 2.5 6.7 0 9.7-5.9 11.8-11.5 12.4.9.8 1.7 2.3 1.7 4.7v7c0 .7.5 1.4 1.8 1.2A25 25 0 0 0 32 7Z"/></svg>