<?xml version="1.0" encoding="UTF-8"?>
<svg xmlns="http://www.w3.org/2000/svg" width="857" height="824" viewBox="0 0 857 824" fill="none">
  <path d="M 596.0 502.0 L 587.0 506.0 L 526.0 557.0 L 513.0 660.0 L 515.0 662.0 L 523.0 658.0 L 590.0 598.0 L 593.0 586.0 L 598.0 521.0 L 598.0 504.0 Z" fill="#ffffff" fill-rule="evenodd"/>
  <path d="M 261.0 502.0 L 259.0 504.0 L 259.0 521.0 L 266.0 597.0 L 335.0 659.0 L 342.0 662.0 L 344.0 660.0 L 332.0 558.0 L 271.0 507.0 Z" fill="#ffffff" fill-rule="evenodd"/>
  <path d="M 668.0 386.0 L 654.0 389.0 L 615.0 436.0 L 608.0 551.0 L 608.0 570.0 L 610.0 572.0 L 613.0 572.0 L 665.0 519.0 L 667.0 514.0 L 670.0 389.0 Z" fill="#ffffff" fill-rule="evenodd"/>
  <path d="M 190.0 386.0 L 187.0 390.0 L 191.0 516.0 L 244.0 572.0 L 247.0 572.0 L 249.0 570.0 L 242.0 436.0 L 202.0 388.0 Z" fill="#ffffff" fill-rule="evenodd"/>
  <path d="M 466.0 105.0 L 392.0 105.0 L 388.0 107.0 L 336.0 188.0 L 316.0 203.0 L 296.0 223.0 L 296.0 230.0 L 346.0 365.0 L 415.0 407.0 L 445.0 406.0 L 512.0 364.0 L 562.0 227.0 L 560.0 221.0 L 547.0 208.0 L 531.0 195.0 L 526.0 195.0 L 511.0 236.0 L 498.0 287.0 L 496.0 287.0 L 492.0 254.0 L 508.0 192.0 L 511.0 172.0 L 472.0 110.0 Z" fill="#ffffff" fill-rule="evenodd"/>
  <path d="M 704.0 103.0 L 702.0 103.0 L 702.0 170.0 L 729.0 202.0 L 755.0 244.0 L 773.0 285.0 L 788.0 339.0 L 793.0 383.0 L 793.0 421.0 L 790.0 454.0 L 782.0 492.0 L 769.0 532.0 L 750.0 573.0 L 725.0 613.0 L 701.0 643.0 L 661.0 682.0 L 618.0 713.0 L 579.0 734.0 L 536.0 750.0 L 502.0 811.0 L 559.0 797.0 L 616.0 773.0 L 664.0 744.0 L 713.0 704.0 L 751.0 663.0 L 783.0 618.0 L 811.0 564.0 L 829.0 512.0 L 840.0 461.0 L 844.0 415.0 L 842.0 360.0 L 829.0 294.0 L 806.0 234.0 L 781.0 189.0 L 745.0 142.0 Z" fill="#ffffff" fill-rule="evenodd"/>
  <path d="M 153.0 103.0 L 109.0 145.0 L 81.0 181.0 L 49.0 237.0 L 30.0 285.0 L 18.0 334.0 L 12.0 387.0 L 14.0 447.0 L 26.0 510.0 L 46.0 567.0 L 74.0 620.0 L 110.0 669.0 L 152.0 712.0 L 206.0 753.0 L 255.0 780.0 L 301.0 798.0 L 356.0 811.0 L 322.0 750.0 L 280.0 735.0 L 229.0 707.0 L 186.0 674.0 L 156.0 644.0 L 128.0 609.0 L 108.0 577.0 L 88.0 535.0 L 74.0 493.0 L 67.0 460.0 L 63.0 427.0 L 63.0 379.0 L 69.0 335.0 L 83.0 286.0 L 100.0 247.0 L 126.0 204.0 L 156.0 167.0 L 155.0 103.0 Z" fill="#ffffff" fill-rule="evenodd"/>
  <path d="M 257.0 12.0 L 215.0 61.0 L 205.0 311.0 L 244.0 363.0 L 247.0 363.0 L 273.0 293.0 L 276.0 292.0 L 276.0 364.0 L 259.0 382.0 L 258.0 388.0 L 280.0 478.0 L 342.0 532.0 L 344.0 555.0 L 364.0 664.0 L 365.0 688.0 L 399.0 745.0 L 407.0 748.0 L 455.0 747.0 L 491.0 690.0 L 492.0 668.0 L 511.0 568.0 L 515.0 532.0 L 575.0 481.0 L 578.0 476.0 L 599.0 389.0 L 598.0 381.0 L 581.0 363.0 L 581.0 288.0 L 584.0 290.0 L 610.0 363.0 L 616.0 361.0 L 653.0 311.0 L 644.0 60.0 L 610.0 19.0 L 601.0 12.0 L 600.0 250.0 L 585.0 271.0 L 580.0 274.0 L 552.0 332.0 L 530.0 384.0 L 444.0 438.0 L 414.0 438.0 L 327.0 384.0 L 279.0 276.0 L 274.0 272.0 L 259.0 250.0 L 259.0 12.0 Z M 303.0 424.0 L 311.0 424.0 L 415.0 475.0 L 442.0 475.0 L 549.0 423.0 L 554.0 423.0 L 555.0 429.0 L 546.0 467.0 L 481.0 511.0 L 458.0 548.0 L 399.0 548.0 L 376.0 511.0 L 311.0 467.0 L 303.0 432.0 Z" fill="#ffffff" fill-rule="evenodd"/>
  <path d="M 305.0 425.0 L 313.0 466.0 L 377.0 509.0 L 400.0 546.0 L 457.0 546.0 L 476.0 513.0 L 480.0 509.0 L 544.0 466.0 L 553.0 425.0 L 550.0 425.0 L 446.0 476.0 L 414.0 477.0 L 310.0 426.0 Z" fill="#1677ff" fill-rule="evenodd"/>
</svg>
